HIERARCHY
ROOT SpineBase
{
  OFFSET 0.000000 0.000000 0.000000
  CHANNELS 6 Xposition Yposition Zposition Zrotation Xrotation Yrotation
  JOINT SpineMid
  {
    OFFSET -0.000000 30.676938 0.000000
    CHANNELS 3 Zrotation Xrotation Yrotation
    JOINT SpineShoulder
    {
      OFFSET 0.091627 22.863602 -0.707453
      CHANNELS 3 Zrotation Xrotation Yrotation
      JOINT Neck
      {
        OFFSET 0.065291 7.590325 -0.552556
        CHANNELS 3 Zrotation Xrotation Yrotation
        JOINT Head
        {
          OFFSET -2.810936 10.879995 3.067025
          CHANNELS 3 Zrotation Xrotation Yrotation
          End Site
          {
            OFFSET 0 0 0
          }
        }
      }
      JOINT ShoulderLeft
      {
        OFFSET -3.993734 -7.075643 -13.750625
        CHANNELS 3 Zrotation Xrotation Yrotation
        JOINT ElbowLeft
        {
          OFFSET -4.517810 -20.619602 -3.052125
          CHANNELS 3 Zrotation Xrotation Yrotation
          JOINT WristLeft
          {
            OFFSET -2.222831 -19.275228 6.575633
            CHANNELS 3 Zrotation Xrotation Yrotation
            JOINT HandLeft
            {
              OFFSET -1.870460 -8.163370 0.647807
              CHANNELS 3 Zrotation Xrotation Yrotation
              JOINT HandTipLeft
              {
                OFFSET -2.735756 -8.216636 1.078629
                CHANNELS 3 Zrotation Xrotation Yrotation
                End Site
                {
                  OFFSET 0 0 0
                }
              }
              JOINT ThumbLeft
              {
                OFFSET -3.170320 1.637955 -3.831050
                CHANNELS 3 Zrotation Xrotation Yrotation
                End Site
                {
                  OFFSET 0 0 0
                }
              }
            }
          }
        }
      }
      JOINT ShoulderRight
      {
        OFFSET 4.024546 -3.635148 -5.305986
        CHANNELS 3 Zrotation Xrotation Yrotation
        JOINT ElbowRight
        {
          OFFSET -11.531498 -21.707049 -11.019981
          CHANNELS 3 Zrotation Xrotation Yrotation
          JOINT WristRight
          {
            OFFSET -5.162772 -21.362858 2.884292
            CHANNELS 3 Zrotation Xrotation Yrotation
            JOINT HandRight
            {
              OFFSET -0.468391 -7.730501 3.450444
              CHANNELS 3 Zrotation Xrotation Yrotation
              JOINT HandTipRight
              {
                OFFSET -3.086775 -8.263268 0.366443
                CHANNELS 3 Zrotation Xrotation Yrotation
                End Site
                {
                  OFFSET 0 0 0
                }
              }
              JOINT ThumbRight
              {
                OFFSET -1.381939 4.973381 -4.964915
                CHANNELS 3 Zrotation Xrotation Yrotation
                End Site
                {
                  OFFSET 0 0 0
                }
              }
            }
          }
        }
      }
    }
  }
  JOINT HipLeft
  {
    OFFSET -3.802547 0.034366 -0.438813
    CHANNELS 3 Zrotation Xrotation Yrotation
    JOINT KneeLeft
    {
      OFFSET 16.028708 -31.263275 8.924716
      CHANNELS 3 Zrotation Xrotation Yrotation
      JOINT AnkleLeft
      {
        OFFSET 5.741227 -31.414883 1.500274
        CHANNELS 3 Zrotation Xrotation Yrotation
        JOINT FootLeft
        {
          OFFSET 6.942046 -2.362607 -9.963602
          CHANNELS 3 Zrotation Xrotation Yrotation
          End Site
          {
            OFFSET 0 0 0
          }
        }
      }
    }
  }
  JOINT HipRight
  {
    OFFSET 4.342618 2.566842 -6.156823
    CHANNELS 3 Zrotation Xrotation Yrotation
    JOINT KneeRight
    {
      OFFSET -3.383801 -31.581212 -1.567912
      CHANNELS 3 Zrotation Xrotation Yrotation
      JOINT AnkleRight
      {
        OFFSET 7.074024 -32.384756 -0.157817
        CHANNELS 3 Zrotation Xrotation Yrotation
        JOINT FootRight
        {
          OFFSET 7.224211 -2.204948 -10.124711
          CHANNELS 3 Zrotation Xrotation Yrotation
          End Site
          {
            OFFSET 0 0 0
          }
        }
      }
    }
  }
}
MOTION
Frames: 15
Frame Time: 0.033333
-30.984497 71.485306 291.977220 1.101989 0.531657 42.488915 0.517701 -0.035881 -42.451844 0.606868 0.158351 0.103711 -7.662770 -2.844160 0.748756 0.000000 0.000000 0.000000 2.838408 -2.418053 -0.447460 -5.315007 2.478884 0.257368 3.333476 -4.838895 1.499814 4.465451 -1.951104 1.775947 0.000000 0.000000 0.000000 0.000000 0.000000 0.000000 -7.854790 14.140175 -4.255903 0.073902 -2.624564 0.766502 4.501680 -11.972493 3.094477 1.768070 1.998863 0.149378 0.000000 0.000000 0.000000 0.000000 0.000000 0.000000 -1.849802 1.648972 -42.616868 2.193078 -1.303509 0.047923 -11.221440 -13.557054 3.407448 0.000000 0.000000 0.000000 -0.739663 -0.378802 -42.504177 -0.812497 0.247085 0.015603 -9.341178 -12.987683 -3.876022 0.000000 0.000000 0.000000
-30.574078 71.361387 292.029459 1.932274 0.817488 38.604484 0.685886 0.086866 -38.554250 0.953184 0.396367 0.160530 -11.417964 -5.002062 0.672719 0.000000 0.000000 0.000000 5.373875 -2.917842 -0.979751 -9.252188 2.576910 0.811271 4.442883 -3.117586 1.189985 1.274730 -2.384295 1.441483 0.000000 0.000000 0.000000 0.000000 0.000000 0.000000 -8.689908 14.413789 -5.069187 -0.068896 -4.295531 1.458474 5.783080 -16.785377 3.909981 1.371950 7.046789 -0.507790 0.000000 0.000000 0.000000 0.000000 0.000000 0.000000 -3.138216 1.767173 -38.928050 2.543620 -1.431896 0.182542 -19.537605 -25.767646 9.628030 0.000000 0.000000 0.000000 -2.020005 0.566946 -38.608276 -0.000000 0.000000 0.000000 -4.629417 -7.052838 -3.682213 0.000000 0.000000 0.000000
-29.988981 71.921934 292.351594 2.894075 0.714007 34.335221 0.850666 0.367978 -34.273784 0.936501 0.469175 0.194030 -13.048256 -6.148224 0.381599 0.000000 0.000000 0.000000 6.980474 -2.908220 -1.399906 -11.725131 1.347715 1.365712 6.373146 1.171300 0.239055 -2.459162 -5.082187 1.615579 0.000000 0.000000 0.000000 0.000000 0.000000 0.000000 -8.346841 16.050622 -6.749862 -0.975884 -6.396152 2.695675 6.482671 -16.267522 4.342681 0.496195 6.317725 -0.620204 0.000000 0.000000 0.000000 0.000000 0.000000 0.000000 -4.936952 2.866274 -34.909021 3.695523 -1.681257 0.457998 -27.839839 -40.412674 15.668839 0.000000 0.000000 0.000000 -2.851311 3.494624 -34.467564 1.436568 -1.987845 0.166978 -4.841153 -7.492010 -4.732592 0.000000 0.000000 0.000000
-29.349973 72.953056 292.865764 3.891688 0.279076 27.517362 0.911856 0.786399 -27.441331 0.594503 0.383998 0.206246 -12.562354 -6.016747 0.099560 0.000000 0.000000 0.000000 7.179372 -0.897893 -2.183588 -12.075855 -1.332626 1.904123 8.782911 4.825857 -0.795526 -5.278017 -7.694476 1.830258 0.000000 0.000000 0.000000 0.000000 0.000000 0.000000 -7.256811 16.667724 -8.004791 -2.692313 -4.700458 2.935607 5.627546 -10.219983 4.145706 0.559706 -1.237337 -0.198456 0.000000 0.000000 0.000000 0.000000 0.000000 0.000000 -7.445248 3.943735 -28.431308 5.336629 -1.764927 0.921799 -33.474751 -52.019777 20.427623 0.000000 0.000000 0.000000 -3.723783 6.171818 -27.787905 2.284846 -4.021248 0.399358 0.541564 -1.759494 -8.706889 0.000000 0.000000 0.000000
-28.694606 74.513011 293.512540 4.842913 -0.419429 15.925669 0.793771 1.359172 -15.825605 0.094344 0.214520 0.210369 -10.672008 -5.311666 -0.297480 0.000000 0.000000 0.000000 6.543265 2.161561 -3.113153 -11.699028 -4.036919 2.171178 11.110249 7.012758 -1.446509 -8.481795 -9.253378 1.468559 0.000000 0.000000 0.000000 0.000000 0.000000 0.000000 -5.812328 16.324959 -8.792779 -4.875338 -0.140184 2.440987 2.376005 -0.926512 2.895657 6.617884 -12.828406 2.578182 0.000000 0.000000 0.000000 0.000000 0.000000 0.000000 -10.850318 3.944344 -17.265209 7.352479 -1.693897 1.521352 -36.269993 -58.255686 22.769380 0.000000 0.000000 0.000000 -5.534444 8.771475 -16.301057 2.941805 -6.476534 0.719060 -3.217375 -6.345611 -9.485854 0.000000 0.000000 0.000000
-28.070841 76.202194 294.135505 5.620396 -1.148966 -0.419351 0.223802 1.714542 0.565120 -0.491063 -0.010474 0.205386 -7.315420 -4.340408 -0.951820 0.000000 0.000000 0.000000 4.864231 6.151754 -3.944069 -9.830258 -7.259013 2.403104 12.854871 6.620420 -1.279706 -11.421585 -8.447062 0.706477 0.000000 0.000000 0.000000 0.000000 0.000000 0.000000 -4.074522 14.984728 -8.908800 -7.468144 7.266661 1.198009 1.820183 6.855220 3.962574 0.491043 -21.359336 -0.611876 0.000000 0.000000 0.000000 0.000000 0.000000 0.000000 -14.478170 1.438159 -1.678269 9.564825 -1.585617 2.167057 -35.112155 -58.121286 24.880903 0.000000 0.000000 0.000000 -9.078172 9.790368 0.092260 3.473692 -8.675793 1.029621 -3.971029 -7.532152 -11.488416 0.000000 0.000000 0.000000
-27.570863 77.683937 294.594801 6.002636 -1.879397 -19.777352 -0.577676 1.437508 19.988387 -1.138935 -0.298215 0.186139 -0.634855 -1.691229 -2.065669 0.000000 0.000000 0.000000 2.739037 10.354692 -4.307392 -6.994678 -8.770370 2.455350 14.189553 3.982988 -0.257279 -8.558899 -7.273137 1.463447 0.000000 0.000000 0.000000 0.000000 0.000000 0.000000 -2.617288 11.863526 -7.329918 -8.748818 18.416832 -1.185899 -0.146691 13.219770 4.762793 -9.065552 -27.816222 -8.380707 0.000000 0.000000 0.000000 0.000000 0.000000 0.000000 -16.322445 -3.870022 16.292189 11.230084 -0.716847 2.930015 -30.662324 -50.814401 24.663741 0.000000 0.000000 0.000000 -13.049344 8.452454 19.391325 3.563656 -10.438392 1.280201 -3.342218 -7.228676 -13.889372 0.000000 0.000000 0.000000
-27.317187 78.768490 294.872275 5.859922 -2.463247 -36.775459 -0.968836 0.604948 37.035243 -1.717770 -0.529663 0.152178 3.963767 -0.471109 -3.081556 0.000000 0.000000 0.000000 0.153627 14.059382 -3.964086 -3.048560 -9.785820 2.640886 13.926807 1.504181 0.580520 -6.791804 -6.931569 2.004706 0.000000 0.000000 0.000000 0.000000 0.000000 0.000000 -0.454548 11.232428 -6.995168 -10.935809 26.036600 -2.516239 -0.238362 16.509624 6.564208 -20.412550 -28.070343 -19.295471 0.000000 0.000000 0.000000 0.000000 0.000000 0.000000 -15.521368 -8.595313 32.387783 12.179768 -0.836278 3.218579 -29.737670 -49.751030 25.276415 0.000000 0.000000 0.000000 -15.528913 6.033155 36.086866 3.196286 -11.605016 1.425243 -1.390987 -5.567467 -16.089193 0.000000 0.000000 0.000000
-27.201741 79.474882 294.907868 5.218551 -3.083135 -49.221635 -0.525357 0.096472 49.512421 -1.723396 -0.729123 0.159703 3.906997 0.615558 -3.106224 0.000000 0.000000 0.000000 -3.156143 17.318183 -3.195230 0.865916 -9.582482 2.752058 14.312990 -4.066256 2.639909 -6.413614 -1.977657 0.781147 0.000000 0.000000 0.000000 0.000000 0.000000 0.000000 1.434709 13.531296 -8.388486 -13.824488 28.794506 -2.313749 0.556830 18.713920 8.801600 -28.933143 -27.881248 -28.043570 0.000000 0.000000 0.000000 0.000000 0.000000 0.000000 -13.954363 -11.182567 44.621698 12.987474 -2.012013 3.148744 -28.829918 -52.554975 31.417259 0.000000 0.000000 0.000000 -16.428404 4.268588 48.297702 2.549647 -12.093093 1.455117 -4.900650 -9.533986 -19.115877 0.000000 0.000000 0.000000
-26.963478 79.731406 294.780568 4.629540 -3.769281 -53.500879 0.062612 -0.398749 53.824958 -1.367718 -0.823227 0.177163 1.401371 1.207232 -2.543004 0.000000 0.000000 0.000000 -5.822819 20.971949 -2.539076 4.177661 -9.781748 3.261701 13.743040 -9.938132 4.577565 -7.722237 1.934084 -0.221620 0.000000 0.000000 0.000000 0.000000 0.000000 0.000000 3.810892 16.459567 -10.698459 -18.376888 29.870258 -1.523519 2.326684 20.997466 12.025542 -35.948986 -34.952790 -34.370691 0.000000 0.000000 0.000000 0.000000 0.000000 0.000000 -13.881368 -11.174917 49.206777 13.127680 -3.717742 2.787592 -27.832486 -50.662521 31.165622 0.000000 0.000000 0.000000 -16.349173 4.090285 52.646245 1.249183 -12.021465 1.172196 -4.034659 -9.400754 -20.422437 0.000000 0.000000 0.000000
-26.793017 79.450242 294.502923 3.863916 -4.351119 -55.414691 0.595619 -0.795754 55.740117 -1.024109 -0.787961 0.168588 -2.795140 0.589974 -1.444953 0.000000 0.000000 0.000000 -4.901033 22.882570 -2.772593 3.935811 -9.203208 3.411098 10.675702 -16.131567 5.851092 -5.115160 8.257245 -1.886004 0.000000 0.000000 0.000000 0.000000 0.000000 0.000000 5.974633 21.285964 -13.983554 -21.689355 25.613536 -0.378518 6.907234 28.320234 18.700520 -48.181011 -43.183764 -44.634308 0.000000 0.000000 0.000000 0.000000 0.000000 0.000000 -13.758090 -10.171983 51.644789 12.716024 -5.437729 2.282927 -27.014933 -44.948933 25.680374 0.000000 0.000000 0.000000 -16.308266 4.825982 54.709777 0.616757 -12.351205 1.036171 -2.830341 -8.118293 -19.899458 0.000000 0.000000 0.000000
-26.664476 78.605780 293.989905 3.180660 -4.739788 -52.303816 1.134072 -1.165542 52.617627 -0.414506 -0.645924 0.164087 -6.784248 -0.321923 -0.546647 0.000000 0.000000 0.000000 -3.756176 21.290940 -2.688023 1.923944 -5.283456 2.245218 6.354088 -22.494595 6.352537 -1.854619 14.422496 -3.587809 0.000000 0.000000 0.000000 0.000000 0.000000 0.000000 6.566359 28.300244 -17.691812 -22.247616 16.795487 0.484477 8.400937 29.187895 18.937601 -44.735243 -51.150974 -39.663003 0.000000 0.000000 0.000000 0.000000 0.000000 0.000000 -13.596173 -7.877690 49.144340 11.253349 -6.399365 1.772845 -24.671165 -35.586875 15.711041 0.000000 0.000000 0.000000 -15.643961 6.488232 51.869879 0.061622 -12.398973 0.875912 -0.791275 -6.178430 -19.514736 0.000000 0.000000 0.000000
-26.156097 78.405119 293.655885 3.171735 -5.728146 -52.071028 1.195711 -1.416192 52.429939 -0.184062 -0.733804 0.171385 -9.760369 0.015745 0.350030 0.000000 0.000000 0.000000 -5.026619 20.125628 -1.678487 4.165473 -3.309551 2.282766 -1.547861 -24.729989 4.036515 2.154701 16.898904 -4.279812 0.000000 0.000000 0.000000 0.000000 0.000000 0.000000 9.459482 33.424800 -22.278037 -24.622278 9.804434 1.148641 7.502828 32.915859 18.182917 -42.384276 -60.491951 -37.187838 0.000000 0.000000 0.000000 0.000000 0.000000 0.000000 -14.235684 -6.910721 49.245453 9.616208 -6.831972 1.436354 -14.174249 -17.117199 0.080709 0.000000 0.000000 0.000000 -16.364952 7.305138 51.810400 -0.482408 -12.958246 0.680248 1.778771 -3.680412 -20.072282 0.000000 0.000000 0.000000
-25.443502 78.453778 293.389041 3.767339 -6.852287 -52.653623 1.062511 -1.543426 53.119461 -0.022187 -0.922505 0.203851 -12.539606 0.763282 1.236995 0.000000 0.000000 0.000000 -7.010262 19.780871 -0.722129 6.940579 -2.871099 2.616028 -6.955656 -25.183313 2.332260 5.851943 18.449994 -5.043502 0.000000 0.000000 0.000000 0.000000 0.000000 0.000000 12.160826 35.226994 -25.616533 -27.739422 7.710746 1.275749 4.349165 34.939561 16.176099 -29.593691 -70.624865 -25.700431 0.000000 0.000000 0.000000 0.000000 0.000000 0.000000 -15.582949 -7.103582 49.810902 8.439605 -7.285846 1.270978 -9.390966 -12.078495 -6.413916 0.000000 0.000000 0.000000 -18.475192 7.314879 52.513772 -0.107321 -14.594086 0.495411 6.092970 1.065073 -21.596617 0.000000 0.000000 0.000000
-24.351596 78.436284 293.025490 4.939646 -7.737318 -60.558958 1.026544 -1.355352 61.186481 -0.104833 -1.119149 0.268607 -14.652580 1.324755 1.776427 0.000000 0.000000 0.000000 -7.437639 17.572911 -0.278346 5.678647 -5.627885 2.185093 -7.593926 -21.710417 2.515449 8.800969 19.440740 -5.775096 0.000000 0.000000 0.000000 0.000000 0.000000 0.000000 14.042683 34.784018 -27.712456 -30.765606 8.042694 1.415130 0.255406 34.696941 12.655946 20.466261 -76.796978 22.393926 0.000000 0.000000 0.000000 0.000000 0.000000 0.000000 -17.172468 -10.757033 57.185096 9.891529 -8.313864 1.336759 -1.366312 -2.914482 -14.998674 0.000000 0.000000 0.000000 -21.112673 4.183408 59.959501 -0.451460 -15.434291 0.321448 2.940398 -2.466103 -23.023785 0.000000 0.000000 0.000000
